# Blender 4.1.0
# www.blender.org
mtllib tree2.mtl
o Cone
v 0.000000 -0.990634 -1.000000
v 0.707107 -0.946194 -0.707107
v 1.000000 -0.857253 0.000000
v 0.707107 -0.958228 0.707107
v 0.000000 -0.992251 1.000000
v -0.707107 -0.857253 0.707107
v -1.000000 -0.985699 0.000000
v -0.707107 -0.857253 -0.707107
v 0.000000 1.000000 -0.000000
v 0.000000 -0.886163 -0.797460
v 0.563889 -0.871366 -0.563889
v 0.797459 -0.920329 0.000000
v 0.563889 -0.903269 0.563889
v 0.000000 -0.919738 0.797460
v -0.563889 -0.824360 0.563889
v -0.797460 -0.872570 0.000000
v -0.563889 -0.816564 -0.563889
v 0.000000 -1.916924 -1.111856
v 0.786201 -1.821464 -0.786201
v 1.111856 -1.934700 0.000000
v 0.786201 -1.891834 0.786201
v 0.000000 -1.914594 1.111856
v -0.786201 -1.906823 0.786201
v -1.111856 -1.873570 0.000000
v -0.786201 -1.925395 -0.786201
v 0.000000 -2.003733 -1.324661
v 0.936677 -1.890591 -0.936677
v 1.324661 -2.004745 0.000000
v 0.936677 -1.890591 0.936677
v 0.000000 -2.023929 1.324661
v -0.936677 -2.009255 0.936677
v -1.324661 -1.890591 0.000000
v -0.936677 -2.027222 -0.936677
v 0.000000 -3.149599 -0.292795
v 0.207037 -3.149599 -0.207038
v 0.292795 -3.149599 0.000000
v 0.207037 -3.149599 0.207038
v 0.000000 -3.149599 0.292795
v -0.207037 -3.149599 0.207038
v -0.292795 -3.149599 0.000000
v -0.207037 -3.149599 -0.207037
v 0.000000 -3.337316 -1.865314
v 1.318976 -3.335273 -1.318976
v 1.865314 -3.196763 0.000000
v 1.318976 -3.334898 1.318976
v 0.000000 -3.196763 1.865314
v -1.318976 -3.339176 1.318976
v -1.865314 -3.337967 0.000000
v -1.318976 -3.196763 -1.318976
vn 0.3235 0.4248 -0.8455
vn 0.8105 0.4364 -0.3906
vn 0.8082 0.4351 0.3969
vn 0.3292 0.4236 0.8439
vn -0.2737 0.4315 0.8596
vn -0.8582 0.4322 0.2770
vn 0.2940 -0.9439 0.1503
vn -0.8582 0.4322 -0.2770
vn -0.2745 0.4317 -0.8593
vn 0.3074 0.4060 -0.8606
vn -0.3943 -0.9152 0.0839
vn -0.0039 -0.9609 0.2769
vn 0.4872 -0.8722 0.0434
vn 0.2175 -0.9760 -0.0067
vn -0.1328 -0.8809 0.4544
vn -0.0401 -0.9407 -0.3368
vn -0.0877 -0.9562 -0.2792
vn 0.3825 0.4410 0.8119
vn -0.3170 0.3669 -0.8746
vn -0.8338 0.3864 0.3943
vn 0.3326 0.4404 0.8339
vn 0.8486 0.4254 -0.3146
vn -0.8452 0.4377 -0.3066
vn -0.3446 0.4045 0.8472
vn 0.8568 0.4165 0.3041
vn -0.0450 -0.9241 0.3795
vn -0.3126 -0.9498 0.0137
vn -0.0327 -0.9986 0.0409
vn -0.1614 -0.8778 -0.4510
vn 0.1704 -0.8854 -0.4324
vn 0.0795 -0.9940 -0.0750
vn 0.3382 -0.9010 0.2715
vn 0.1642 -0.9134 0.3726
vn 0.8625 0.4086 -0.2984
vn -0.8471 0.4358 -0.3042
vn -0.3321 0.4779 0.8132
vn 0.8159 0.4871 0.3114
vn 0.3430 0.4402 -0.8298
vn -0.3399 0.4811 -0.8081
vn -0.8308 0.4372 0.3445
vn -0.0485 -0.9919 0.1171
vn -0.0300 -0.9995 0.0124
vn -0.0434 -0.9916 -0.1218
vn -0.0124 -0.9995 -0.0300
vn 0.1252 -0.9912 -0.0438
vn 0.1188 -0.9917 -0.0492
vn 0.0300 -0.9995 0.0124
vn -0.0566 -0.9914 0.1183
vn -0.1644 -0.9647 -0.2058
vn 0.3360 0.4295 -0.8383
vn 0.2973 -0.9548 -0.0031
vn 0.0222 -0.8885 0.4583
vn 0.2617 -0.9651 0.0125
vn 0.4872 -0.8722 -0.0434
vn -0.1244 -0.9250 0.3589
vn -0.0503 -0.9612 -0.2711
vn -0.0939 -0.9373 -0.3356
vn 0.3240 0.4793 0.8157
vn -0.3596 0.3981 -0.8439
vn -0.8436 0.4369 0.3121
vn 0.2982 0.4113 0.8613
vn 0.8568 0.4165 -0.3041
vn -0.8336 0.3801 -0.4007
vn -0.3011 0.3711 0.8784
vn 0.8341 0.4404 0.3322
vn -0.0446 -0.9250 0.3773
vn -0.3923 -0.9194 0.0301
vn -0.3126 -0.9498 -0.0137
vn 0.1021 -0.9903 -0.0939
vn 0.1727 -0.8761 -0.4501
vn 0.3522 -0.8991 -0.2598
vn 0.0793 -0.9920 0.0983
vn 0.1924 -0.8912 0.4107
vn 0.7946 0.4744 -0.3789
vn -0.7961 0.4852 -0.3617
vn -0.3834 0.4439 0.8099
vn 0.8119 0.4410 0.3825
vn 0.3061 0.4101 -0.8592
vn -0.3013 0.4468 -0.8424
vn -0.8291 0.4266 0.3615
vn -0.0475 -0.9918 0.1184
vn -0.0434 -0.9916 0.1221
vn -0.0300 -0.9995 -0.0124
vn -0.1218 -0.9916 -0.0434
vn 0.0124 -0.9995 -0.0300
vn 0.1189 -0.9916 -0.0502
vn 0.1187 -0.9913 -0.0569
vn 0.0124 -0.9995 0.0300
vt 0.250000 0.490000
vt 0.250000 0.250000
vt 0.419706 0.419706
vt 0.490000 0.250000
vt 0.419706 0.080294
vt 0.250000 0.010000
vt 0.080294 0.080294
vt 0.010000 0.250000
vt 0.080294 0.419706
vt 0.901867 0.098133
vt 0.750000 0.035228
vt 0.750000 0.464772
vt 0.919706 0.419706
vt 0.901867 0.401867
vt 0.964772 0.250000
vt 0.990000 0.250000
vt 0.919706 0.080294
vt 0.750000 0.010000
vt 0.580294 0.080294
vt 0.598133 0.098133
vt 0.510000 0.250000
vt 0.535228 0.250000
vt 0.598133 0.401867
vt 0.580294 0.419706
vt 0.750000 0.490000
vt 0.750000 0.283712
vt 0.773838 0.273838
vt 0.783712 0.250000
vt 0.773838 0.226162
vt 0.750000 0.216288
vt 0.726162 0.226162
vt 0.716288 0.250000
vt 0.726162 0.273838
s 0
usemtl Material.001
f 1/1/1 9/2/1 2/3/1
f 2/3/2 9/2/2 3/4/2
f 3/4/3 9/2/3 4/5/3
f 4/5/4 9/2/4 5/6/4
f 5/6/5 9/2/5 6/7/5
f 6/7/6 9/2/6 7/8/6
f 3/4/7 13/5/7 12/4/7
f 7/8/8 9/2/8 8/9/8
f 8/9/9 9/2/9 1/1/9
f 10/1/10 27/3/10 26/1/10
f 2/3/11 12/4/11 11/3/11
f 8/9/12 10/1/12 17/9/12
f 8/9/13 16/8/13 7/8/13
f 6/7/14 16/8/14 15/7/14
f 2/3/15 10/1/15 1/1/15
f 6/7/16 14/6/16 5/6/16
f 4/5/17 14/6/17 13/5/17
f 21/10/18 46/11/18 45/10/18
f 10/1/19 33/9/19 17/9/19
f 15/7/20 32/8/20 31/7/20
f 14/6/21 29/5/21 13/5/21
f 12/4/22 27/3/22 11/3/22
f 17/9/23 32/8/23 16/8/23
f 14/6/24 31/7/24 30/6/24
f 12/4/25 29/5/25 28/4/25
f 18/12/26 27/13/26 19/14/26
f 20/15/27 27/13/27 28/16/27
f 20/15/28 29/17/28 21/10/28
f 21/10/29 30/18/29 22/11/29
f 22/11/30 31/19/30 23/20/30
f 23/20/31 32/21/31 24/22/31
f 25/23/32 32/21/32 33/24/32
f 25/23/33 26/25/33 18/12/33
f 20/15/34 43/14/34 19/14/34
f 24/22/35 49/23/35 48/22/35
f 23/20/36 46/11/36 22/11/36
f 21/10/37 44/15/37 20/15/37
f 18/12/38 43/14/38 42/12/38
f 18/12/39 49/23/39 25/23/39
f 23/20/40 48/22/40 47/20/40
f 34/26/41 43/14/41 35/27/41
f 35/27/42 44/15/42 36/28/42
f 37/29/43 44/15/43 45/10/43
f 37/29/44 46/11/44 38/30/44
f 39/31/45 46/11/45 47/20/45
f 39/31/46 48/22/46 40/32/46
f 40/32/47 49/23/47 41/33/47
f 34/26/48 49/23/48 42/12/48
f 3/4/49 4/5/49 13/5/49
f 10/1/50 11/3/50 27/3/50
f 2/3/51 3/4/51 12/4/51
f 8/9/52 1/1/52 10/1/52
f 8/9/53 17/9/53 16/8/53
f 6/7/54 7/8/54 16/8/54
f 2/3/55 11/3/55 10/1/55
f 6/7/56 15/7/56 14/6/56
f 4/5/57 5/6/57 14/6/57
f 21/10/58 22/11/58 46/11/58
f 10/1/59 26/1/59 33/9/59
f 15/7/60 16/8/60 32/8/60
f 14/6/61 30/6/61 29/5/61
f 12/4/62 28/4/62 27/3/62
f 17/9/63 33/9/63 32/8/63
f 14/6/64 15/7/64 31/7/64
f 12/4/65 13/5/65 29/5/65
f 18/12/66 26/25/66 27/13/66
f 20/15/67 19/14/67 27/13/67
f 20/15/68 28/16/68 29/17/68
f 21/10/69 29/17/69 30/18/69
f 22/11/70 30/18/70 31/19/70
f 23/20/71 31/19/71 32/21/71
f 25/23/72 24/22/72 32/21/72
f 25/23/73 33/24/73 26/25/73
f 20/15/74 44/15/74 43/14/74
f 24/22/75 25/23/75 49/23/75
f 23/20/76 47/20/76 46/11/76
f 21/10/77 45/10/77 44/15/77
f 18/12/78 19/14/78 43/14/78
f 18/12/79 42/12/79 49/23/79
f 23/20/80 24/22/80 48/22/80
f 34/26/81 42/12/81 43/14/81
f 35/27/82 43/14/82 44/15/82
f 37/29/83 36/28/83 44/15/83
f 37/29/84 45/10/84 46/11/84
f 39/31/85 38/30/85 46/11/85
f 39/31/86 47/20/86 48/22/86
f 40/32/87 48/22/87 49/23/87
f 34/26/88 41/33/88 49/23/88
o Cone.001
v 0.000000 -3.149599 -0.292795
v 0.207037 -3.149599 -0.207038
v 0.292795 -3.149599 0.000000
v 0.207037 -3.149599 0.207038
v 0.000000 -3.149599 0.292795
v -0.207037 -3.149599 0.207038
v -0.292795 -3.149599 0.000000
v -0.207037 -3.149599 -0.207037
v 0.000000 -4.388348 -0.427075
v 0.301988 -4.388348 -0.301988
v 0.427075 -4.388348 0.000000
v 0.301988 -4.388348 0.301988
v 0.000000 -4.388348 0.427075
v -0.301988 -4.388348 0.301988
v -0.427075 -4.388348 0.000000
v -0.301988 -4.388348 -0.301988
vn -0.9193 0.0996 -0.3808
vn -0.0000 -1.0000 -0.0000
vn -0.3808 0.0996 0.9193
vn 0.9193 0.0996 0.3808
vn 0.3808 0.0996 -0.9193
vn -0.3808 0.0997 -0.9193
vn -0.9193 0.0997 0.3808
vn 0.3808 0.0996 0.9193
vn 0.9193 0.0997 -0.3808
vn -0.9193 0.0997 -0.3808
vn 0.9193 0.0997 0.3808
vn -0.3808 0.0996 -0.9193
vn -0.9193 0.0996 0.3808
vn 0.9193 0.0996 -0.3808
vt 0.726162 0.273838
vt 0.716288 0.250000
vt 0.773838 0.226162
vt 0.726162 0.226162
vt 0.750000 0.216288
vt 0.783712 0.250000
vt 0.773838 0.273838
vt 0.750000 0.283712
s 0
usemtl Material.002
f 57/34/89 64/35/89 56/35/89
f 61/36/90 63/37/90 65/34/90
f 55/37/91 62/38/91 54/38/91
f 53/36/92 60/39/92 52/39/92
f 51/40/93 58/41/93 50/41/93
f 50/41/94 65/34/94 57/34/94
f 56/35/95 63/37/95 55/37/95
f 53/36/96 62/38/96 61/36/96
f 52/39/97 59/40/97 51/40/97
f 57/34/98 65/34/98 64/35/98
f 65/34/90 58/41/90 59/40/90
f 59/40/90 60/39/90 61/36/90
f 61/36/90 62/38/90 63/37/90
f 63/37/90 64/35/90 65/34/90
f 65/34/90 59/40/90 61/36/90
f 55/37/91 63/37/91 62/38/91
f 53/36/99 61/36/99 60/39/99
f 51/40/93 59/40/93 58/41/93
f 50/41/100 58/41/100 65/34/100
f 56/35/101 64/35/101 63/37/101
f 53/36/96 54/38/96 62/38/96
f 52/39/102 60/39/102 59/40/102
